<svg width="73" height="146" viewBox="0 0 73 146" fill="none" xmlns="http://www.w3.org/2000/svg">
<path d="M36.5 29.6562C17.3321 29.6562 1.79236 44.9771 1.79236 63.875C1.79236 88.9688 36.5 118.625 36.5 118.625C36.5 118.625 71.2075 91.25 71.2075 63.875C71.2075 44.9771 55.6678 29.6562 36.5 29.6562ZM36.5 84.4062C23.7206 84.4062 13.3616 74.1908 13.3616 61.5938C13.3616 48.9944 23.7206 38.7812 36.5 38.7812C49.277 38.7812 59.6383 48.9944 59.6383 61.5938C59.6383 74.1908 49.277 84.4062 36.5 84.4062Z" fill="#332D28"/>
<path d="M49.1937 58.4318C49.1937 54.1111 45.642 50.6094 41.2572 50.6094C39.471 50.6094 37.8235 51.1979 36.4977 52.1834C35.1695 51.1979 33.5267 50.6094 31.7381 50.6094C27.3557 50.6094 23.804 54.1111 23.804 58.4318C23.804 66.4481 36.4977 74.8568 36.4977 74.8568C36.4977 74.8568 49.1937 66.2542 49.1937 58.4318Z" fill="#FC563F"/>
<path d="M36.8864 130.031C40.9335 130.031 44.2143 129.01 44.2143 127.75C44.2143 126.49 40.9335 125.469 36.8864 125.469C32.8393 125.469 29.5585 126.49 29.5585 127.75C29.5585 129.01 32.8393 130.031 36.8864 130.031Z" fill="#FC563F"/>
</svg>
