<svg width="190" height="190" viewBox="0 0 190 190" fill="none" xmlns="http://www.w3.org/2000/svg">
<circle cx="95" cy="95" r="89" fill="#F8F5ED" stroke="white" stroke-width="12"/>
<path d="M72.8802 162.348L68.3475 160.267L68.5196 159.892L69.7565 160.29L70.2345 151.085L66.0279 155.096L65.8802 158.511L66.9722 159.182L66.8001 159.557L62.2673 157.477L62.4394 157.102L63.7388 157.528L64.2168 148.323L58.015 154.579L59.204 155.616L59.0318 155.992L55.765 154.492L55.9372 154.117L57.3188 154.24L65.4459 146.181L66.3837 146.612L66.0787 154.079L71.4636 148.943L72.4014 149.374L71.9135 161.28L73.0524 161.973L72.8802 162.348Z" fill="#332D28"/>
<path d="M49.3865 133.981L53.1544 137.353L52.8792 137.661L51.7379 136.847L50.2791 140.85L53.1627 143.43L56.6308 141.618L55.7884 140.264L56.0636 139.956L58.7421 142.353L58.4669 142.661L57.1947 142.122L47.0056 147.267L46.1085 146.464L49.9949 135.287L49.1113 134.289L49.3865 133.981ZM50.047 141.496L48.5161 145.734L52.5589 143.744L50.047 141.496Z" fill="#332D28"/>
<path d="M34.4976 128.311L34.7881 128.738L33.609 130.519L35.14 132.827L43.6811 127.006L42.9082 125.597L43.2493 125.365L46.339 129.898L45.998 130.13L44.9693 128.896L36.4282 134.717L38.016 136.986L40.1056 136.54L40.3865 136.952L38.2405 138.414L35.2677 134.114L32.3516 129.774L34.4976 128.311Z" fill="#332D28"/>
<path d="M26.6579 117.271L25.5027 113.665L28.4066 112.492L28.6194 113.074L26.7047 114.397C26.729 115.231 26.8673 115.992 27.1195 116.681C27.5885 117.962 28.3941 118.846 29.5363 119.331C30.6677 119.82 32.0625 119.762 33.7206 119.155C35.3679 118.552 36.4373 117.721 36.9288 116.662C37.4203 115.603 37.4512 114.487 37.0216 113.313C36.5881 112.129 36.1456 111.32 35.6941 110.887L33.6342 110.963L33.4451 110.446L35.8546 109.674C36.638 110.914 37.2149 112.04 37.5853 113.052C37.9518 114.053 38.1844 114.939 38.283 115.708C38.3708 116.482 38.3406 117.25 38.1923 118.012C38.0441 118.775 37.6797 119.464 37.0991 120.079C36.5146 120.684 35.7271 121.167 34.7365 121.53C33.746 121.893 32.8089 122.034 31.9251 121.955C31.0267 121.868 30.2444 121.599 29.5783 121.147C28.2462 120.243 27.2727 118.951 26.6579 117.271Z" fill="#332D28"/>
<path d="M34.0645 92.4754L34.4838 97.7214L34.0723 97.7542L33.7988 96.2751L28.7072 96.682L29.1402 102.099L34.2318 101.692L34.2669 100.189L34.6783 100.156L35.099 105.419L34.6875 105.452L34.414 103.973L24.0937 104.797L24.0586 106.301L23.6471 106.334L23.2265 101.071L23.6379 101.038L23.9114 102.517L28.523 102.149L28.09 96.7314L23.4784 97.1L23.4433 98.6038L23.0319 98.6367L22.6126 93.3907L23.0241 93.3579L23.2976 94.837L33.6179 94.0121L33.653 92.5083L34.0645 92.4754Z" fill="#332D28"/>
<path d="M24.2782 78.7841L25.822 73.9693L26.2151 74.0953L25.9476 75.4364L35.143 74.8088L28.2635 69.1714L27.3756 70.476L26.9825 70.35L28.08 66.9272L28.4731 67.0533L28.5161 68.4397L37.4167 75.7726L37.1016 76.7553L25.2229 77.6964L24.6712 78.9101L24.2782 78.7841Z" fill="#332D28"/>
<path d="M43.2325 62.9327L40.6328 67.5282L40.2735 67.3249L40.8755 65.9464L31.8642 60.8487L30.9928 62.0747L30.6335 61.8715L33.2332 57.276L33.5925 57.4793L32.9905 58.8578L42.0018 63.9555L42.8732 62.7295L43.2325 62.9327Z" fill="#332D28"/>
<path d="M49.5165 46.0766C52.3571 48.6619 52.1721 51.7183 48.9617 55.2457L45.3384 59.2267L45.0332 58.9489L45.9015 57.7393L38.2828 50.8053L37.1347 51.7602L36.804 51.4592C37.1844 51.0923 37.61 50.6503 38.0808 50.133L39.1921 48.912L40.5766 47.2885C41.2789 46.5169 41.956 45.9007 42.608 45.4399C43.2677 44.9705 43.9701 44.6331 44.7152 44.4276C46.2456 44.0066 47.846 44.5563 49.5165 46.0766ZM47.7812 48.0088C46.3143 46.6737 45.046 46.0232 43.9762 46.0573C43.6191 46.0578 43.3245 46.092 43.0923 46.1597C42.8516 46.2197 42.6017 46.3411 42.3424 46.5237C41.9806 46.768 41.5982 47.0944 41.1954 47.5029L41.0218 47.6937C40.4584 48.3127 40.0667 48.7856 39.8467 49.1125L47.44 56.0234L48.5547 54.8752C49.254 54.0388 49.6878 53.3407 49.8562 52.7809C50.3129 51.2741 49.6212 49.6834 47.7812 48.0088Z" fill="#332D28"/>
<path d="M57.2283 47.2022L57.0037 46.856L58.1746 45.9117L52.5393 37.2264L51.1999 37.911L50.9752 37.5647L58.3332 32.7906L59.6625 34.8393L59.2008 35.1389L57.6459 33.9746L54.4582 35.9814L56.9763 39.8624L59.7752 38.0464L59.5297 36.6885L59.9337 36.4264L61.6748 39.1099L61.2564 39.3814L60.1122 38.5657L57.3133 40.3818L60.1028 44.6811L63.6672 42.307L63.3502 40.1755L63.8119 39.8759L65.0336 42.1379L57.2283 47.2022Z" fill="#332D28"/>
<path d="M78.3323 30.7791C78.879 32.4098 78.8217 33.9345 78.1606 35.3532C77.5068 36.7575 76.3156 37.7493 74.5871 38.3288C72.8695 38.9045 71.3212 38.831 69.9422 38.1082C68.5705 37.3709 67.6113 36.187 67.0647 34.5563C66.518 32.9257 66.5716 31.4082 67.2255 30.004C67.8866 28.5852 69.0759 27.5879 70.7935 27.0122C72.522 26.4327 74.0721 26.5117 75.4439 27.249C76.8229 27.9718 77.7857 29.1485 78.3323 30.7791ZM74.4503 37.8123C76.5375 37.1126 77.0053 35.0452 75.8538 31.61C75.2999 29.9576 74.6343 28.7659 73.8572 28.0348C73.0909 27.3001 72.1316 27.1259 70.9793 27.5122C69.827 27.8985 69.1556 28.6193 68.9653 29.6747C68.7858 30.7265 68.973 32.0785 69.5269 33.7309C70.6785 37.1661 72.3196 38.5266 74.4503 37.8123Z" fill="#332D28"/>
<path d="M112.653 25.4935L117.229 27.4773L117.065 27.856L115.82 27.4849L115.538 36.6974L119.658 32.5978L119.733 29.1814L118.627 28.5332L118.791 28.1545L123.367 30.1383L123.203 30.517L121.895 30.1186L121.613 39.3311L127.68 32.9453L126.469 31.933L126.634 31.5543L129.931 32.984L129.767 33.3627L128.383 33.2689L120.429 41.4986L119.482 41.0881L119.629 33.6162L114.354 38.8649L113.407 38.4545L113.642 26.5409L112.489 25.8722L112.653 25.4935Z" fill="#332D28"/>
<path d="M136.744 53.3556L132.906 50.0646L133.174 49.7512L134.333 50.5404L135.706 46.5076L132.768 43.989L129.339 45.8745L130.21 47.2102L129.942 47.5236L127.213 45.1841L127.482 44.8707L128.765 45.382L138.842 40.0219L139.756 40.8055L136.108 52.0628L137.013 53.0422L136.744 53.3556ZM135.924 45.8566L137.365 41.5868L133.365 43.6626L135.924 45.8566Z" fill="#332D28"/>
<path d="M151.75 58.7073L151.45 58.2872L152.591 56.4808L151.012 54.2064L142.596 60.2075L143.399 61.5997L143.063 61.8393L139.878 57.3725L140.214 57.1328L141.268 58.3452L149.684 52.344L148.048 50.1096L145.969 50.5998L145.679 50.1937L147.793 48.6859L150.857 52.9227L153.864 57.1995L151.75 58.7073Z" fill="#332D28"/>
<path d="M159.822 69.5791L161.054 73.16L158.176 74.3942L157.95 73.8175L159.837 72.4536C159.795 71.6207 159.64 70.8625 159.373 70.179C158.877 68.9079 158.053 68.0419 156.901 67.5809C155.759 67.1157 154.366 67.2041 152.721 67.8461C151.087 68.4839 150.036 69.3374 149.567 70.4065C149.098 71.4757 149.091 72.5924 149.545 73.7566C150.004 74.9315 150.463 75.7306 150.924 76.1539L152.982 76.0338L153.182 76.5465L150.789 77.3695C149.98 76.147 149.379 75.0337 148.987 74.0298C148.599 73.0365 148.348 72.1561 148.233 71.3886C148.129 70.617 148.143 69.8485 148.275 69.0831C148.407 68.3177 148.757 67.6212 149.324 66.9936C149.895 66.3767 150.673 65.8765 151.655 65.4929C152.638 65.1094 153.572 64.948 154.457 65.0086C155.357 65.0758 156.145 65.3283 156.82 65.7662C158.171 66.6419 159.172 67.9129 159.822 69.5791Z" fill="#332D28"/>
<path d="M152.944 94.526L152.413 89.2901L152.824 89.2485L153.129 90.7215L158.211 90.2065L157.663 84.7996L152.581 85.3146L152.578 86.8188L152.167 86.8605L151.635 81.6075L152.045 81.5659L152.35 83.0389L162.651 81.9951L162.654 80.4908L163.065 80.4492L163.597 85.7021L163.186 85.7438L162.882 84.2708L158.279 84.7372L158.827 90.1441L163.429 89.6777L163.433 88.1735L163.843 88.1318L164.374 93.3677L163.963 93.4093L163.658 91.9363L153.358 92.9801L153.355 94.4844L152.944 94.526Z" fill="#332D28"/>
<path d="M163.019 108.007L161.578 112.854L161.182 112.736L161.421 111.39L152.241 112.213L159.239 117.703L160.099 116.379L160.494 116.497L159.47 119.942L159.074 119.825L159.002 118.44L149.948 111.297L150.242 110.308L162.098 109.115L162.623 107.89L163.019 108.007Z" fill="#332D28"/>
<path d="M144.405 124.257L146.907 119.607L147.27 119.803L146.698 121.194L155.815 126.099L156.661 124.855L157.024 125.05L154.523 129.7L154.159 129.504L154.732 128.113L145.614 123.208L144.769 124.452L144.405 124.257Z" fill="#332D28"/>
<path d="M138.481 141.243C135.586 138.718 135.706 135.659 138.841 132.064L142.379 128.007L142.69 128.278L141.847 129.506L149.612 136.276L150.739 135.297L151.076 135.591C150.704 135.966 150.288 136.417 149.828 136.944L148.743 138.189L147.393 139.841C146.707 140.627 146.044 141.258 145.401 141.732C144.752 142.216 144.057 142.568 143.316 142.789C141.795 143.243 140.183 142.727 138.481 141.243ZM140.175 139.274C141.67 140.578 142.952 141.201 144.02 141.144C144.377 141.136 144.671 141.096 144.902 141.023C145.141 140.958 145.389 140.831 145.644 140.643C146.001 140.391 146.376 140.057 146.77 139.64L146.939 139.445C147.49 138.815 147.871 138.333 148.084 138.002L140.346 131.254L139.256 132.425C138.574 133.277 138.155 133.984 137.999 134.547C137.574 136.063 138.3 137.639 140.175 139.274Z" fill="#332D28"/>
<path d="M130.747 140.281L130.979 140.623L129.828 141.592L135.647 150.155L136.971 149.443L137.203 149.784L129.948 154.713L128.576 152.693L129.031 152.384L130.61 153.515L133.755 151.441L131.155 147.614L128.395 149.489L128.669 150.842L128.271 151.112L126.473 148.466L126.886 148.186L128.047 148.977L130.807 147.102L127.927 142.863L124.414 145.312L124.776 147.437L124.32 147.746L123.051 145.51L130.747 140.281Z" fill="#332D28"/>
<path d="M109.996 157.149C109.415 155.531 109.44 154.005 110.071 152.572C110.695 151.155 111.865 150.138 113.58 149.522C115.285 148.91 116.835 148.95 118.229 149.644C119.616 150.352 120.6 151.515 121.181 153.134C121.762 154.752 121.741 156.27 121.117 157.688C120.486 159.121 119.318 160.143 117.614 160.755C115.898 161.371 114.346 161.325 112.959 160.617C111.565 159.924 110.578 158.768 109.996 157.149ZM113.728 150.035C111.656 150.779 111.233 152.856 112.457 156.266C113.046 157.906 113.736 159.083 114.529 159.798C115.311 160.516 116.273 160.67 117.417 160.259C118.561 159.849 119.217 159.114 119.385 158.054C119.542 156.999 119.326 155.651 118.737 154.011C117.513 150.601 115.843 149.276 113.728 150.035Z" fill="#332D28"/>
</svg>
